<svg width="190" height="65" viewBox="0 0 190 65" fill="none" xmlns="http://www.w3.org/2000/svg">
<g clip-path="url(#clip0_1114_1751)">
<path d="M7.37585 19.6304C8.04077 18.9883 7.65133 18.139 7.44153 17.5197C6.20619 15.9974 5.15317 16.3695 4.19734 17.0954C3.8193 17.6826 3.22341 18.4782 3.765 19.2792C4.90717 20.2196 6.09157 20.18 7.37585 19.6304Z" fill="#D13239"/>
<path d="M131.108 28.7584L130.907 28.739C130.862 28.7303 130.667 28.6518 130.667 28.6518L130.609 28.6016C130.387 28.4923 130.56 28.3127 130.56 28.3127L130.807 28.0633C130.872 27.9628 131.015 27.8971 131.015 27.8971C131.082 27.8609 131.141 27.8287 131.223 27.7878C131.351 27.7188 131.484 27.6618 131.639 27.5928C131.799 27.5197 131.686 27.5734 131.863 27.4922C131.888 27.4802 131.909 27.4688 131.936 27.4581C131.921 27.4306 131.909 27.4024 131.899 27.3763C131.578 26.761 131.255 26.0686 130.908 25.466C130.848 25.3607 130.791 25.2602 130.73 25.1529L130.642 25.2079L129.993 25.6154L129.624 25.8809L129.515 25.9231L129.303 25.9244C129.179 25.9358 129.04 25.8681 129.04 25.8681C128.911 25.8567 128.858 25.6805 128.858 25.6805L128.84 25.5947L128.862 25.5089L128.935 25.4023L129.057 25.2227L129.336 24.9492C129.624 24.7675 129.898 24.488 130.175 24.2883C130.19 24.2755 130.204 24.2688 130.217 24.2561C129.73 23.4189 129.187 22.5918 128.486 21.9382C128.443 21.9939 128.399 22.0455 128.36 22.1018C128.08 22.512 127.659 22.8478 127.394 23.2654L127.087 23.4276C126.931 23.5221 126.843 23.4377 126.843 23.4377C126.744 23.4216 126.674 23.2989 126.674 23.2989L126.628 23.2037C126.525 23.1313 126.567 22.9732 126.567 22.9732L126.59 22.7781L126.731 22.5026C126.892 22.3263 126.89 22.2627 127.019 22.0683L127.199 21.839C127.347 21.656 127.494 21.4744 127.632 21.2941C127.122 21.0132 126.331 20.6982 125.898 20.6479C125.617 20.6184 125.286 20.656 125.026 20.8175C124.923 21.0836 124.837 21.3705 124.767 21.6426C124.683 22.0086 124.641 22.207 124.61 22.4825C124.601 22.5147 124.574 22.6776 124.536 22.7774C124.487 23.0683 124.46 23.3284 124.393 23.622C124.344 23.8546 124.282 24.0979 124.233 24.2997C124.185 24.5128 124.147 24.7166 124.092 24.9291C123.978 25.415 123.883 25.897 123.828 26.4003C123.805 26.6041 123.797 26.8943 123.781 27.0907C123.76 27.3072 123.702 27.5573 123.708 27.8059C123.723 28.2597 123.611 28.6478 123.638 29.0828C123.66 29.4877 123.759 29.9931 124.093 30.2833C124.252 30.4147 124.471 30.5575 124.66 30.656C124.926 30.7981 125.257 30.843 125.547 30.9348C125.789 31.0233 126.064 31.0723 126.36 31.0635C126.728 31.0495 127.154 30.835 127.503 30.7331C128.398 30.4683 129.304 30.8678 130.14 31.0052C130.305 31.0307 130.464 31.0676 130.631 31.1071C130.875 31.0227 131.127 30.9228 131.251 30.8008C131.581 30.4844 132.13 29.8979 132.198 29.485C132.264 29.0822 132.255 28.6552 132.179 28.2463C131.916 28.3844 131.684 28.5258 131.394 28.6941C131.318 28.743 131.108 28.7584 131.108 28.7584Z" fill="#F5C400"/>
<path d="M138.411 19.6425C138.398 19.5218 138.385 19.3777 138.297 19.2738C138.231 19.2102 137.955 19.0406 137.882 19.0198C137.363 18.8583 137.032 19.1907 137.032 19.1907L136.841 19.3308C136.812 19.3516 136.791 19.3757 136.759 19.3972C136.695 19.4461 136.634 19.4682 136.562 19.5198C136.465 19.5775 136.388 19.6834 136.292 19.7511C136.058 19.9414 135.732 20.1714 135.514 20.3825C135.198 20.6861 135.018 20.8564 134.677 21.0441C134.538 21.1218 134.438 21.2311 134.336 21.3155C134.235 21.3987 134.14 21.4483 134.028 21.5093C133.686 21.6842 133.361 21.8658 133.05 22.0978C132.832 22.2633 132.442 22.516 132.193 22.75C132.07 22.8639 131.969 22.9745 131.854 23.0435C131.75 23.126 131.612 23.2265 131.505 23.309C131.379 23.4055 131.265 23.4585 131.151 23.5623C131.048 23.6575 130.918 23.7118 130.81 23.8144C130.638 23.9793 130.42 24.1153 130.216 24.2561C130.203 24.2688 130.19 24.2755 130.174 24.2883C129.897 24.488 129.624 24.7682 129.336 24.9492L129.056 25.2227L128.934 25.4023L128.861 25.5089L128.84 25.5947L128.857 25.6805C128.857 25.6805 128.911 25.8574 129.039 25.8681C129.039 25.8681 129.178 25.9358 129.302 25.9244L129.514 25.9231L129.623 25.8809L129.992 25.6154L130.641 25.2079L130.73 25.1529L131.578 24.6315C132.099 24.3439 132.413 24.0202 132.878 23.7728L132.976 23.7105C133.06 23.6649 133.229 23.5945 133.315 23.553C133.804 23.3096 134.017 23.1856 134.418 22.9008C134.76 22.6621 135.158 22.3947 135.527 22.1655C135.731 22.0341 135.927 21.9577 136.106 21.8049C136.129 21.776 136.16 21.7539 136.185 21.7351L137.488 20.9429L138.103 20.4328C138.166 20.3905 138.224 20.345 138.28 20.3041C138.482 20.1258 138.45 19.9153 138.411 19.6425Z" fill="#717271"/>
<path d="M132.198 16.2729C132.123 16.2046 132.016 16.1007 131.916 16.0785C131.684 16.0209 131.501 16.1784 131.328 16.283C131.181 16.3641 130.981 16.4613 130.888 16.592C130.819 16.6845 130.775 16.7998 130.706 16.8956C130.645 16.9794 130.588 17.0645 130.527 17.1483C130.465 17.2415 130.411 17.3306 130.348 17.4198C130.278 17.525 130.25 17.6068 130.158 17.704C130.049 17.828 129.931 17.9688 129.862 18.1156C129.814 18.2308 129.72 18.3347 129.632 18.4333C129.358 18.7483 129.203 19.0667 128.954 19.4045C128.85 19.5419 128.706 19.6968 128.638 19.8442C128.6 19.934 128.496 20.0902 128.445 20.1754C128.366 20.3067 128.283 20.418 128.164 20.5407C128.053 20.658 127.977 20.7893 127.885 20.9267C127.796 21.0749 127.744 21.152 127.657 21.2632C127.653 21.2746 127.64 21.2853 127.63 21.2947C127.492 21.475 127.345 21.656 127.197 21.8397L127.017 22.0689C126.888 22.2633 126.891 22.3276 126.729 22.5033L126.588 22.7788L126.565 22.9738C126.565 22.9738 126.522 23.1313 126.626 23.2044L126.672 23.2996C126.672 23.2996 126.742 23.4222 126.841 23.4383C126.841 23.4383 126.929 23.5228 127.085 23.4283L127.392 23.2661C127.657 22.8485 128.078 22.5126 128.358 22.1024C128.397 22.0461 128.441 21.9945 128.484 21.9389C128.709 21.6446 128.978 21.3698 129.163 21.0514C129.26 20.8798 129.395 20.7042 129.515 20.542C129.794 20.18 130.072 19.8322 130.38 19.4997C130.673 19.1793 130.958 18.8435 131.177 18.4949C131.358 18.2308 131.647 18.0438 131.836 17.7938C131.963 17.6216 132.092 17.4573 132.143 17.2663C132.214 17.0277 132.315 16.7998 132.286 16.5437C132.284 16.4465 132.271 16.3426 132.198 16.2729Z" fill="#717271"/>
<path d="M138.46 24.5356C138.403 24.3881 138.269 24.3097 138.091 24.3151C137.943 24.3338 137.788 24.3855 137.657 24.429C137.515 24.4699 137.374 24.5302 137.236 24.606C137.114 24.6563 137.019 24.7394 136.91 24.797C136.646 24.9244 136.388 25.0437 136.168 25.2045C135.769 25.5035 135.34 25.6751 134.892 25.899C134.516 26.0766 134.149 26.3112 133.8 26.5418C133.69 26.6115 133.567 26.6973 133.423 26.761C132.756 27.0505 132.684 27.1336 132.317 27.2912C132.157 27.3542 132.062 27.3924 131.936 27.4581C131.909 27.4688 131.888 27.4802 131.863 27.4922C131.686 27.5734 131.8 27.5197 131.639 27.5928C131.484 27.6618 131.351 27.7188 131.223 27.7878C131.141 27.8294 131.082 27.8609 131.015 27.8971C131.015 27.8971 130.873 27.9628 130.807 28.0633L130.56 28.3127C130.56 28.3127 130.387 28.4923 130.609 28.6016L130.667 28.6518C130.667 28.6518 130.862 28.7303 130.907 28.739L131.108 28.7584C131.108 28.7584 131.318 28.743 131.391 28.6968C131.681 28.5285 131.913 28.3871 132.176 28.249C132.367 28.1531 132.575 28.0513 132.828 27.9594C133.19 27.8207 133.575 27.7 133.916 27.5318C134.518 27.2509 135.121 26.9031 135.723 26.6859C136.077 26.5639 136.491 26.4124 136.836 26.206C137.134 26.0277 137.484 25.9017 137.806 25.7797C137.98 25.7146 138.049 25.6831 138.177 25.5632C138.29 25.4599 138.399 25.354 138.476 25.222C138.568 25.0551 138.531 24.7213 138.46 24.5356Z" fill="#717271"/>
<path d="M134.173 32.3947C133.658 32.1521 132.993 31.9811 132.483 31.7619C131.909 31.5106 131.265 31.2767 130.629 31.1098C130.461 31.0695 130.302 31.0333 130.137 31.0079C129.301 30.8705 128.395 30.471 127.5 30.7357C127.151 30.8376 126.725 31.0521 126.357 31.0662C126.061 31.0749 125.786 31.0253 125.544 30.9375C125.254 30.8457 124.922 30.8008 124.658 30.6587C124.469 30.5608 124.25 30.418 124.09 30.286C123.756 29.9957 123.658 29.4897 123.635 29.0855C123.608 28.6505 123.721 28.2617 123.706 27.8086C123.7 27.5599 123.757 27.3099 123.778 27.0934C123.794 26.897 123.802 26.6061 123.826 26.403C123.881 25.8996 123.975 25.417 124.089 24.9317C124.144 24.7192 124.182 24.5155 124.231 24.3023C124.279 24.1005 124.341 23.8572 124.391 23.6246C124.457 23.3311 124.485 23.071 124.533 22.7801C124.572 22.6802 124.599 22.5167 124.607 22.4852C124.639 22.2097 124.68 22.0113 124.764 21.6453C124.834 21.3731 124.92 21.0863 125.023 20.8202C125.07 20.7008 125.118 20.5802 125.176 20.4662C125.41 19.987 125.564 19.4065 125.829 18.9045C125.829 18.9045 125.986 18.6538 126.015 18.5747C126.051 18.5036 126.105 18.4058 126.105 18.4058C126.105 18.4058 126.205 18.2617 126.311 18.0995C126.458 17.8602 126.436 17.9466 126.522 17.7858C126.561 17.7482 126.591 17.6973 126.613 17.6457C126.659 17.5853 126.697 17.5331 126.71 17.452C126.742 17.2871 126.721 17.0887 126.63 16.9472C126.524 16.779 126.366 16.5397 126.122 16.5263C125.908 16.5176 125.66 16.6503 125.496 16.7616C125.395 16.8266 125.323 16.907 125.259 16.9975C125.001 17.2576 124.81 17.6618 124.717 17.958C124.588 18.385 124.416 18.8046 124.316 19.2503C124.206 19.7081 124.003 19.9856 123.87 20.4213C123.807 20.6331 123.693 20.9147 123.653 21.1292C123.623 21.3108 123.581 21.6821 123.584 21.847C123.534 22.1252 123.413 22.7526 123.379 22.9631C123.287 23.5127 123.234 24.0228 123.065 24.563C122.801 25.4163 122.482 26.3668 122.513 27.2938C122.546 28.1585 122.472 29.1787 122.731 29.9964C122.791 30.1727 122.86 30.3309 122.968 30.4897C123.005 30.5608 123.05 30.6265 123.096 30.6942C123.186 30.8229 123.234 30.8832 123.34 30.9817C123.42 31.0588 123.486 31.1124 123.554 31.1969C123.68 31.3377 123.897 31.4382 124.07 31.5461C124.265 31.6715 124.357 31.778 124.584 31.8585C124.769 31.9288 124.938 31.9898 125.12 32.0173C125.327 32.0549 125.594 32.0482 125.796 32.0173C126.081 31.9798 126.392 31.9067 126.685 31.9248C126.907 31.9355 127.111 31.949 127.351 31.9309C127.841 31.8933 128.312 31.6607 128.796 31.7083C129.343 31.7579 129.8 32.012 130.35 32.2097C130.738 32.3491 131.032 32.4161 131.271 32.5643C131.507 32.7158 131.741 32.8706 131.956 33.0134C132.368 33.2949 132.795 33.557 133.288 33.7815C133.564 33.9008 133.743 34.0389 133.935 34.1368C134.268 34.301 134.71 34.4036 135.077 34.5322C135.29 34.602 135.558 34.736 135.737 34.602C135.886 34.5001 135.951 34.2856 135.946 34.1368C136.137 33.1213 134.959 32.7801 134.173 32.3947Z" fill="#717271"/>
<path d="M69.1101 53.7642L68.8098 53.7568C68.3393 53.7749 67.9023 53.8775 67.5758 53.964C67.3238 54.0317 67.0637 54.0498 66.807 54.0652C66.6287 54.0786 66.4363 54.0913 66.2513 54.1235L65.8585 54.2012C65.6534 54.2441 65.4403 54.2964 65.203 54.3132L64.5233 54.3601C63.7471 54.4037 62.9515 54.4513 62.1914 54.6684C61.7336 54.7978 61.2798 54.9888 60.8448 55.1698C60.8448 55.1698 60.7563 55.2053 60.698 55.2288C60.698 55.2429 60.7 55.2918 60.7 55.3039C60.7556 55.326 60.8099 55.3427 60.8682 55.3635C61.2751 55.5023 61.7376 55.6947 62.1679 55.7657C63.0306 55.8991 63.7532 56.2282 64.5602 56.4782C65.0488 56.625 64.9604 56.68 65.449 56.7966C66.0181 56.928 65.8934 56.9481 66.4538 57.0708C66.8097 57.1505 66.7768 57.2839 67.1354 57.3402C67.3459 57.3737 67.5477 57.4092 67.7541 57.4562C67.858 57.485 67.974 57.5413 68.047 57.5601C68.3547 57.6318 68.4351 57.359 68.4351 57.359C68.4264 57.3067 68.5062 57.2323 68.5343 57.182C68.5913 57.0701 68.6805 56.8408 68.7126 56.6619C68.7589 56.5117 68.8996 56.2939 68.9312 56.131C69.1242 55.1624 69.5713 54.6316 69.7549 54.0746C69.7683 54.0524 69.8193 53.7522 69.8541 53.6865C69.826 53.6945 69.6417 53.7461 69.6417 53.7461C69.4727 53.785 69.2884 53.7756 69.1101 53.7642Z" fill="#D13239"/>
<path d="M110.345 4.87267C110.834 4.78017 111.287 4.87401 111.786 5.00003L112.841 5.39684C113.285 5.52285 113.58 5.60731 113.895 5.8781L114.493 6.36607C114.888 6.68178 115.296 7.00754 115.656 7.39363C115.809 7.55919 115.908 7.75625 116.002 7.95734L116.154 8.25495C116.51 8.88368 116.595 9.8871 116.596 9.89246C116.672 10.3563 116.601 10.5534 116.465 10.9428L116.284 11.4757C116.16 11.8537 116.041 12.211 115.838 12.5636C115.561 13.0308 115.116 13.4738 114.806 13.7634C114.605 13.9584 114.328 14.0871 114.062 14.2165L113.507 14.5067L113.291 14.6616L112.83 14.9464C112.812 14.9511 112.794 14.9565 112.775 14.9652L113.366 14.9994L113.673 15.051C113.918 15.0912 114.173 15.1381 114.45 15.1053C114.722 15.0765 114.968 14.9706 115.206 14.8754L115.855 14.6663L116.652 14.5014C117.282 14.315 117.679 14.0375 117.951 13.6099L118.135 13.3324C118.454 12.8551 118.758 12.3993 118.873 11.8283L119.108 10.7082L119.131 9.89179V9.14777C119.144 8.75565 119.16 8.38498 119.061 7.9808L119.014 7.77971C118.876 7.19455 118.723 6.52895 118.386 6.05439C117.951 5.4518 117.49 4.92697 117.006 4.47117C116.569 4.26941 116.122 4.10184 115.684 3.96644C111.773 3.44362 109.426 4.41151 108.211 6.1308C108.821 5.48867 109.6 5.01075 110.345 4.87267Z" fill="#F38B00"/>
<path d="M120.422 8.90515L120.476 9.23828L120.53 9.5131C120.53 9.51444 120.497 10.2766 120.492 10.3014C120.439 10.6318 120.263 10.973 120.095 11.3034L119.884 11.7364C119.751 12.0387 119.526 12.2955 119.312 12.5408L118.964 12.9591L118.524 13.3807L118.302 13.5704L118.003 13.8767L117.562 14.2956L117.304 14.4491L116.856 14.7481C116.527 15.0416 116.248 15.1395 115.823 15.291L115.716 15.3332C114.797 15.6576 113.964 15.8453 113.084 15.9184C111.983 16.0109 110.754 15.9137 109.218 15.6054C109.061 15.5772 108.902 15.5175 108.749 15.4592C109.538 16.7415 110.682 17.7107 112.472 18.1089C117.733 18.4165 121.283 14.1012 121.413 10.0178C121.28 8.78315 120.819 7.74622 120.17 6.89093C120.291 7.21401 120.382 7.54111 120.401 7.85011L120.422 8.90515Z" fill="#F38B00"/>
<path d="M112.915 13.6347C113.574 13.3585 114.259 13.071 114.713 12.4697L115.036 12.1138C115.261 11.8785 115.494 11.6339 115.601 11.3617C115.677 11.1566 115.633 10.855 115.601 10.611L115.573 10.4113C115.514 9.63105 115.36 8.92858 115.115 8.32733C114.915 7.84272 114.667 7.54176 114.347 7.1684C114.344 7.16505 113.775 6.51621 113.775 6.51621C113.755 6.49611 113.672 6.42237 113.672 6.42237C113.257 6.07717 112.748 5.64618 112.202 5.6683L111.091 5.76415C110.596 5.83587 110.165 6.17906 109.749 6.51286L109.367 6.81315C108.982 7.08462 108.621 7.45797 108.436 7.76563L107.95 8.56663C107.586 9.10487 107.485 9.79728 107.416 10.4039C107.346 11.048 107.514 11.662 107.869 12.0877L108.077 12.3598C108.272 12.6192 108.494 12.9134 108.754 13.0824L109.374 13.3391L110.15 13.7868C111.039 14.2587 111.866 14.0777 112.839 13.6689L112.915 13.6347Z" fill="#F38B00"/>
<path d="M111.035 1.23905L109.749 1.64324L108.919 2.05077C108.491 2.26392 108.006 2.52735 107.638 2.95566L107.248 3.60651C107.248 3.60651 106.892 4.10722 106.863 4.13738L106.658 4.52548L106.385 4.80231C105.855 5.51013 105.581 6.28968 105.339 7.24752L105.162 8.12627L105.145 8.94402C105.075 9.57074 105.075 10.0487 105.147 10.4837L105.213 10.9408L105.343 11.711L105.742 12.8424C105.883 13.199 105.982 13.4591 106.27 13.7252L106.534 14.0577C106.658 14.238 106.775 14.4075 106.977 14.498L107.808 14.9572C108.108 15.1428 108.425 15.3278 108.75 15.4606C108.903 15.5189 109.062 15.5785 109.219 15.6067C110.754 15.915 111.984 16.0115 113.085 15.9197C113.965 15.8467 114.798 15.659 115.717 15.3346L115.823 15.2923C116.249 15.1408 116.528 15.0436 116.857 14.7494L117.305 14.4504L117.563 14.2969L118.004 13.878L118.303 13.5717L118.525 13.382L118.965 12.9604L119.313 12.5421C119.526 12.2968 119.751 12.0401 119.885 11.7378L120.096 11.3048C120.263 10.9743 120.44 10.6331 120.492 10.3027C120.498 10.2779 120.531 9.51578 120.531 9.51444L120.477 9.23962L120.423 8.90648L120.401 7.85145C120.383 7.54245 120.291 7.21602 120.171 6.89227C120.031 6.52294 119.63 5.69245 119.63 5.69245C119.474 5.37406 119.246 5.08316 119.031 4.79963L118.524 4.12532C118.103 3.55088 117.662 2.95633 117.164 2.46501C116.931 2.24315 116.571 2.14126 116.249 2.05613L114.645 1.54269C113.989 1.32016 113.144 1.07416 112.381 1.12577L111.035 1.23905ZM110.15 13.7862L109.374 13.3384L108.754 13.0817C108.494 12.9128 108.272 12.6185 108.077 12.3591L107.869 12.087C107.514 11.6614 107.347 11.0474 107.416 10.4032C107.485 9.79663 107.586 9.10422 107.95 8.56598L108.436 7.76498C108.62 7.45732 108.981 7.08397 109.367 6.8125L109.749 6.51221C110.165 6.17841 110.596 5.83522 111.091 5.7635L112.202 5.66765C112.748 5.64553 113.257 6.07653 113.672 6.42172C113.672 6.42172 113.755 6.49479 113.775 6.51556C113.775 6.51556 114.344 7.1644 114.347 7.16776C114.667 7.54178 114.915 7.84274 115.115 8.32668C115.359 8.92793 115.514 9.6304 115.573 10.4106L115.601 10.6104C115.633 10.8543 115.677 11.156 115.601 11.3611C115.494 11.6332 115.261 11.8779 115.036 12.1131L114.713 12.4691C114.259 13.0703 113.575 13.3579 112.915 13.634L112.839 13.6682C111.866 14.0771 111.039 14.2587 110.15 13.7862ZM119.13 9.14846V9.89248L119.108 10.7089L118.872 11.8289C118.757 12.4007 118.453 12.8558 118.134 13.3331L117.95 13.6106C117.679 14.0382 117.282 14.3157 116.652 14.5021L115.855 14.6669L115.205 14.8761C114.968 14.9713 114.721 15.0772 114.45 15.106C114.172 15.1388 113.917 15.0919 113.672 15.0517L113.365 15.0001L112.774 14.9659C112.793 14.9565 112.811 14.9518 112.829 14.9471L113.29 14.6623L113.506 14.5074L114.061 14.2172C114.328 14.0885 114.605 13.9591 114.806 13.7641C115.115 13.4745 115.56 13.0314 115.837 12.5642C116.04 12.2117 116.159 11.8544 116.283 11.4764L116.464 10.9435C116.601 10.5541 116.672 10.357 116.595 9.89315C116.594 9.88712 116.509 8.8837 116.153 8.25563L116.001 7.95803C115.908 7.75694 115.808 7.55987 115.655 7.39431C115.295 7.00823 114.887 6.6818 114.493 6.36676L113.894 5.87879C113.578 5.60866 113.284 5.52354 112.84 5.39752L111.785 5.00071C111.287 4.8747 110.834 4.78086 110.344 4.87336C109.6 5.01144 108.821 5.48935 108.209 6.13149C107.883 6.47803 107.603 6.8668 107.41 7.28237C107.048 8.05589 106.668 8.96413 106.782 9.91393L106.808 10.1747C106.841 10.536 106.872 10.8791 107.036 11.2069C107.154 11.4355 107.205 11.7116 107.249 11.9536C107.326 12.4014 107.512 12.8243 107.741 13.2057L107.365 12.8692L106.736 12.2827C106.432 11.9717 106.309 11.654 106.138 11.2042L105.783 10.5802L105.685 10.4394C105.557 10.2444 105.56 9.93806 105.56 9.6686L105.563 8.81868C105.648 8.27038 105.877 7.76766 106.097 7.27634L106.292 6.84401C106.445 6.48607 106.628 6.25214 106.835 5.98L107.501 5.18236L107.732 4.81705L108.018 4.38137C108.2 4.17827 108.463 3.98388 108.72 3.80224L109.014 3.58238L109.943 2.94025C110.531 2.61784 111.12 2.33162 111.843 2.29275C111.843 2.29275 112.881 2.29811 112.893 2.29811C112.945 2.30883 114.19 2.56354 114.682 2.8149L115.16 3.10715L115.466 3.30957C116.009 3.63265 116.518 4.01874 117.003 4.4732C117.488 4.92966 117.947 5.45383 118.383 6.05642C118.721 6.53098 118.873 7.19658 119.012 7.78174L119.058 7.98283C119.159 8.38567 119.144 8.75634 119.13 9.14846Z" fill="#717271"/>
<path d="M102.716 24.7092C102.948 24.5691 103.11 24.4994 103.31 24.3144C103.712 23.9525 104.151 23.5603 104.554 23.1937C104.814 22.9571 105.011 22.7057 105.245 22.4631C105.543 22.1561 105.878 21.8571 106.156 21.5274C106.473 21.1439 106.629 20.5956 106.725 20.1177C106.788 19.7987 106.877 19.2356 106.687 18.9474C106.548 18.7302 105.713 18.5419 105.641 18.8777C105.07 18.863 104.451 19.1492 103.984 19.4495C103.693 19.6324 103.487 19.8932 103.243 20.1559C103.136 20.2806 103.022 20.3912 102.927 20.5212C102.856 20.6305 102.734 20.7203 102.673 20.8182C102.62 20.908 102.62 21.0367 102.553 21.1332C102.502 21.217 102.431 21.2726 102.391 21.3591C102.289 21.5595 102.246 21.701 102.113 21.8913C101.898 22.2023 101.585 22.3867 101.328 22.6494C101.201 22.7875 101.106 22.9577 101.008 23.1159C100.828 23.4189 100.618 23.6642 100.419 23.9504C100.329 24.0644 100.346 24.1643 100.31 24.2856C100.159 24.734 99.9172 25.0075 99.6779 25.4097C99.6659 25.4814 99.513 25.7193 99.509 25.8112C99.503 25.9198 99.7497 26.2469 99.7946 26.3011C99.7946 26.3011 99.7959 26.3011 99.7986 26.3005L100.285 26.1436L101.137 25.8266L102.354 25.0759L102.509 24.9894C102.484 24.972 102.477 24.9183 102.716 24.7092Z" fill="#CC007B"/>
<path d="M97.8816 24.6053C97.8226 24.5436 97.7482 24.5168 97.6932 24.4645C97.5585 24.3439 97.5391 24.2641 97.464 24.0865C97.3105 23.7192 97.0833 23.4953 96.8111 23.2198C96.6308 23.0382 96.5135 22.8069 96.346 22.6199C96.0732 22.3163 95.6281 22.1802 95.2929 21.9536C95.1562 21.8705 95.1006 21.7787 94.9839 21.6701C94.7151 21.4295 94.3136 21.2639 94.0066 21.0796C93.6936 20.8926 93.3933 20.6305 93.0401 20.542C92.7921 20.4777 92.5193 20.5058 92.2626 20.4616C91.8369 20.3818 91.4207 20.2343 91.0024 20.164C90.487 20.0721 89.9702 19.977 89.4547 19.9341C88.9647 19.8918 88.4547 19.731 87.9499 19.7424C87.71 19.7424 87.3949 19.7088 87.1952 19.8503C87.0068 19.985 86.9143 20.3791 86.8842 20.5983C86.7917 21.1989 86.8178 21.9731 86.9961 22.5274C87.0383 22.6715 87.0665 22.766 87.1449 22.882C87.342 23.1716 87.4948 23.5442 87.7207 23.8077C87.9466 24.0771 88.1651 24.3466 88.3628 24.6536C88.5733 24.982 88.9232 25.3741 89.1216 25.5162C89.3374 25.6657 89.7812 25.7796 89.9997 25.9445C90.0881 26.0122 90.1089 25.9754 90.1961 26.0565C90.3898 26.2328 90.6438 26.348 90.8757 26.4345C91.6057 26.7315 92.339 27.0297 93.0582 27.3609C93.7908 27.6906 94.5496 27.7986 95.3164 27.6069C95.8097 27.4902 96.2964 27.4017 96.7723 27.2798C97.151 27.1725 97.4955 26.9466 97.8239 26.7241C98.0425 26.5726 98.2824 26.3561 98.4098 26.0913C98.4379 26.0256 98.5371 25.8467 98.5371 25.7656L98.5163 25.7448C98.2838 25.3875 98.1725 24.9143 97.8816 24.6053Z" fill="#AAAD00"/>
<path d="M96.2025 30.8631C95.2467 30.8631 94.6314 31.6138 94.6066 32.7741V41.4798C94.6066 42.7708 94.3619 43.5758 93.8397 43.9196L93.2177 44.3607C92.6956 44.72 92.4549 45.1852 92.4549 45.771C92.4549 46.7784 93.2177 47.4943 94.3177 47.4943C95.7454 47.4943 97.1986 46.1678 97.6135 44.4981C97.7757 43.9009 97.7757 43.6991 97.7757 42.252V32.7741C97.7757 31.6386 97.1537 30.8631 96.2025 30.8631Z" fill="#55585F"/>
<path d="M102.36 30.8631C101.432 30.8631 100.809 31.6138 100.783 32.7741V41.5703C100.783 42.6984 101.433 43.4565 102.386 43.4565C103.317 43.4565 103.938 42.7205 103.962 41.5703V32.7741C103.961 31.6386 103.316 30.8631 102.36 30.8631Z" fill="#55585F"/>
<path d="M71.9233 30.8631C68.5839 30.8631 65.9597 33.6977 65.9597 37.3133V41.5147C65.9597 42.681 66.622 43.4592 67.6006 43.4592C68.5591 43.4592 69.1885 42.7011 69.2167 41.5147V37.2221C69.2354 35.5471 70.3877 34.2849 71.924 34.2849C73.3879 34.2849 74.5582 35.5404 74.5877 37.1417V41.5147C74.5877 42.681 75.2379 43.4592 76.2145 43.4592C77.1744 43.4592 77.8017 42.7011 77.8312 41.5147V37.2389C77.8232 33.6984 75.195 30.8631 71.9233 30.8631Z" fill="#55585F"/>
<path d="M112.559 30.8631C109.213 30.8631 106.59 33.6977 106.59 37.3133V41.5147C106.59 42.681 107.254 43.4592 108.232 43.4592C109.193 43.4592 109.821 42.7011 109.846 41.5147V37.2221C109.865 35.5471 111.018 34.2849 112.559 34.2849C114.017 34.2849 115.19 35.5404 115.223 37.1417V41.5147C115.223 42.681 115.867 43.4592 116.845 43.4592C117.798 43.4592 118.43 42.7011 118.455 41.5147V37.2389C118.454 33.6984 115.823 30.8631 112.559 30.8631Z" fill="#55585F"/>
<path d="M36.2391 30.8631C35.2873 30.8631 34.6633 31.6138 34.6398 32.7681V37.8307C34.6398 39.0761 33.802 40.04 32.7087 40.04C31.962 40.04 31.2562 39.5608 30.9613 38.8549C30.8018 38.4159 30.7501 38.1176 30.7501 37.0907V32.7681C30.7501 31.638 30.108 30.8631 29.1823 30.8631C29.1783 30.8631 29.1783 30.8631 29.1689 30.8631C29.1609 30.8631 29.1609 30.8631 29.1609 30.8631C28.2178 30.8631 27.5971 31.6138 27.573 32.7681V37.8307C27.573 39.0761 26.7378 40.04 25.6405 40.04C24.9012 40.04 24.186 39.5608 23.8958 38.8549C23.7336 38.4159 23.6833 38.1176 23.6833 37.0907V32.7681C23.6833 31.638 23.0338 30.8631 22.0773 30.8631C21.1489 30.8631 20.5323 31.6138 20.5028 32.7681V37.3944C20.5028 38.7584 20.7481 39.9468 21.1999 40.7411C22.1577 42.4149 23.8958 43.4592 25.666 43.4592C26.965 43.4592 28.2453 42.8908 29.1837 41.9162C30.1482 42.8908 31.4325 43.4592 32.7295 43.4592C34.2618 43.4592 35.7418 42.6977 36.6929 41.4041C37.4832 40.3182 37.813 39.172 37.813 37.4969V32.7681C37.8123 31.638 37.1722 30.8631 36.2391 30.8631Z" fill="#55585F"/>
<path d="M52.8536 38.9434C53.5601 41.6206 55.8196 43.5396 58.5175 43.5396C61.8556 43.5396 64.4911 40.7237 64.4911 37.0921C64.4911 33.7011 61.7865 30.8631 58.5423 30.8631C55.825 30.8631 53.5205 32.8626 52.8341 35.5236H50.8568C50.1704 32.888 47.8405 30.9006 45.1231 30.9006C41.8763 30.9006 39.2052 33.7574 39.2052 37.2C39.2052 40.7472 41.8273 43.5818 45.0983 43.5818C47.8539 43.5818 50.1175 41.644 50.8327 38.9428H52.8536V38.9434ZM58.5423 34.3352C60.0196 34.3352 61.2389 35.6255 61.2389 37.1417C61.2389 38.8281 60.0719 40.1211 58.5175 40.1211C57.0409 40.1211 55.8444 38.8275 55.8444 37.2168C55.8444 35.6255 57.0617 34.3352 58.5423 34.3352ZM45.0983 40.1647C43.6204 40.1647 42.4272 38.8637 42.4272 37.2543C42.4272 35.6583 43.6431 34.3633 45.1238 34.3633C46.6025 34.3633 47.8204 35.6583 47.8204 37.1759C47.8204 38.8637 46.6494 40.1647 45.0983 40.1647Z" fill="#55585F"/>
<path d="M87.2206 44.2474V42.4926C89.6967 41.7814 91.4863 39.5366 91.4863 36.828C91.4863 33.4893 88.8628 30.8638 85.498 30.8638C82.3409 30.8638 79.7181 33.563 79.7181 36.8072C79.7181 39.5306 81.5721 41.821 84.0468 42.5141V44.222C81.5949 44.9164 79.7509 47.2423 79.7509 49.9616C79.7509 53.2112 82.3986 55.8836 85.5985 55.8836C88.8943 55.8836 91.5198 53.2574 91.5198 49.9891C91.5212 47.2228 89.7295 44.9666 87.2206 44.2474ZM82.9428 36.8065C82.9428 35.3306 84.1346 34.1153 85.5456 34.1153C87.1194 34.1153 88.3145 35.2823 88.3145 36.8273C88.3145 38.312 87.1194 39.5125 85.6166 39.5125C84.1353 39.5125 82.9428 38.2912 82.9428 36.8065ZM85.6461 52.6602C84.1661 52.6602 82.9723 51.447 82.9723 49.961C82.9723 48.485 84.1661 47.2657 85.5737 47.2657C87.1502 47.2657 88.3494 48.434 88.3494 49.9891C88.3487 51.4684 87.1502 52.6602 85.6461 52.6602Z" fill="#55585F"/>
<path d="M15.1237 32.1695C14.7886 31.8967 14.5614 31.7177 14.5614 31.7177C13.9816 31.2586 13.4829 30.9167 12.9037 30.4563C12.8086 30.3819 12.6249 30.1734 12.5304 30.0977C12.3628 29.9602 12.1859 29.8248 12.0183 29.6901C11.8514 29.552 11.6684 29.4495 11.5015 29.3174C11.3795 29.2189 11.2642 29.0775 11.1422 28.9783C10.8761 28.7685 10.616 28.55 10.3667 28.3455C10.0838 28.1102 9.80968 27.9353 9.5476 27.7134C9.27077 27.4815 9.01472 27.2074 8.76671 26.9915L8.55557 26.8166L8.47246 27.0478C8.35247 27.381 8.34979 27.7677 8.35448 28.1411L8.29818 29.0078C7.96371 31.1138 7.24516 33.7078 6.54269 36.214C8.11787 35.832 8.9497 35.4084 10.6482 34.913C11.6262 34.6275 12.3883 34.1804 13.3146 33.8037C14.318 33.3908 14.9917 33.315 15.9428 32.8291C15.79 32.7131 15.6432 32.6079 15.5045 32.4933C15.3778 32.3867 15.2323 32.254 15.1237 32.1695Z" fill="#00A1DF"/>
<path d="M7.30748 25.5437C7.45696 26.0371 7.54476 26.5324 7.5642 26.5807C7.56822 26.9205 7.57828 27.2691 7.55549 27.5982C7.54476 27.7476 7.55549 27.8475 7.54208 27.9956C7.52398 28.117 7.48712 28.2765 7.4717 28.3978C7.39931 28.9347 7.2867 29.471 7.14996 30.0112C7.06551 30.341 6.97502 30.6647 6.8785 30.9979C6.75785 31.4155 6.69819 31.7144 6.60904 31.9886C6.53062 32.2379 6.40728 32.5241 6.3302 32.7775C6.1767 33.2567 6.02254 33.7494 5.87306 34.2508C5.69276 34.8621 5.61567 35.5217 5.47022 36.1799C5.35761 36.6839 5.09754 37.2463 5.0037 37.7195C4.94002 38.046 4.83613 38.3402 4.79859 38.6231C4.77982 38.7726 4.82741 38.9026 4.79859 39.0574C4.83076 39.0708 4.98962 39.5119 5.09955 39.5508C5.29393 39.6124 5.69276 39.2645 5.71421 39.2766C5.73364 39.2089 5.80939 39.1278 5.86234 38.9227C5.90189 38.7739 5.91462 38.5366 5.96489 38.3436C6.06544 37.9662 6.24574 37.7021 6.34763 37.3207L6.54335 36.2167C7.24582 33.7105 7.96436 31.1165 8.29884 29.0105L8.35447 28.1431C8.34978 27.7698 8.35313 27.383 8.47244 27.0499L8.55556 26.8186L8.7667 26.9936C9.01471 27.2094 9.27076 27.4835 9.54759 27.7155C9.80967 27.9373 10.0838 28.1129 10.3667 28.3475C10.616 28.5527 10.8754 28.7712 11.1422 28.9803C11.2642 29.0788 11.3795 29.2203 11.5015 29.3195C11.6684 29.4508 11.8514 29.5541 12.0183 29.6921C12.1858 29.8269 12.3635 29.9623 12.5304 30.0997C12.6249 30.1754 12.8085 30.3839 12.9037 30.4583C13.4829 30.9188 13.9815 31.2606 14.5613 31.7198C14.5613 31.7198 14.7886 31.8987 15.1237 32.1715C15.2323 32.256 15.3778 32.3881 15.5038 32.4946C15.6425 32.6092 15.79 32.7145 15.9421 32.8304C15.9844 32.8606 16.0212 32.8867 16.0655 32.9203C16.1446 32.9819 16.2123 33.0758 16.2947 33.1374C16.3879 33.2172 16.4864 33.2634 16.5729 33.3311C16.8263 33.5269 17.079 33.8077 17.2968 33.9726C17.4436 34.0939 17.5609 34.1268 17.6708 34.2119C17.8833 34.3701 18.014 34.48 18.0308 34.4948C18.0723 34.5082 18.2513 34.5088 18.3739 34.4948C18.5321 34.47 18.6233 34.3895 18.6233 34.3895C18.7393 34.3265 18.8646 34.0477 18.9068 33.8593C18.9249 33.7588 18.7795 33.6086 18.7902 33.5899C18.6628 33.4619 18.5697 33.3365 18.4242 33.2031C18.264 33.0557 18.0066 32.8988 17.8337 32.7513C17.4349 32.4048 17.0294 32.0469 16.5729 31.6876C16.4073 31.5502 16.1479 31.4175 15.983 31.2888C15.5614 30.9563 15.1794 30.6373 14.747 30.3189C14.3073 29.9904 13.8777 29.6419 13.4601 29.3362C12.8441 28.8898 12.2629 28.5118 11.7676 28.1666C11.6014 28.0459 11.4807 27.9367 11.3178 27.8308C11.0551 27.6618 10.7628 27.5043 10.5188 27.3394C10.4478 27.2932 10.4116 27.2489 10.3452 27.198C10.2943 27.1585 10.2172 27.1276 10.1676 27.0894C9.93971 26.9245 9.71315 26.7489 9.48793 26.5438C9.39007 26.4547 9.29355 26.3937 9.19837 26.2965C9.069 26.1617 8.93494 25.9922 8.8029 25.8387L8.50931 25.2857L8.21371 24.7367C8.36922 24.6757 8.5254 24.6127 8.68224 24.5551C8.94902 24.4599 9.1548 24.368 9.48793 24.2078C9.79492 24.055 10.1696 23.9484 10.4826 23.7795C10.7863 23.612 11.0276 23.3934 11.3332 23.2017C11.7294 22.9551 12.1295 22.6816 12.527 22.3806C12.8072 22.1708 13.1209 21.9992 13.5023 21.6641C13.7986 21.3987 14.1565 20.9858 14.4628 20.6801C14.8006 20.3463 15.0305 20.0293 15.3483 19.6606C15.4414 19.5554 15.6077 19.4206 15.7028 19.3074C16.3302 18.5714 16.9234 17.7771 17.3826 16.9875C17.6836 16.4667 17.9356 15.9486 18.0971 15.4492C18.2908 14.8781 18.323 14.3727 18.2714 13.8693C18.2513 13.685 18.1239 13.441 18.0696 13.2687C17.6581 13.2721 17.392 13.2929 17.1158 13.4095C16.349 13.7406 15.977 14.5966 15.6975 15.411C15.611 15.6697 15.4622 15.9526 15.3677 16.2173C15.2189 16.6175 15.119 16.9902 14.8784 17.3495C14.7329 17.5572 14.4487 17.7818 14.2657 17.9862C13.8482 18.4762 13.4607 18.9374 12.9138 19.3979C12.6953 19.5842 12.5264 19.8094 12.3045 19.9877C12.0303 20.2082 11.6972 20.3778 11.4271 20.5863C10.9947 20.9214 10.5778 21.2398 10.1984 21.5408C9.63137 21.9905 9.04085 22.3082 8.57165 22.5857C8.25192 22.7808 7.95096 22.9477 7.63928 23.1146C7.61917 23.004 7.59235 22.8626 7.59906 22.876C7.5756 22.7171 7.41942 22.2902 7.25587 21.9141C7.18482 21.7559 7.13991 21.5937 7.07422 21.4623C6.98641 21.2733 6.88654 21.1279 6.84565 21.0159C6.74109 20.7478 6.52593 20.7364 6.52593 20.7364C6.52593 20.7364 6.38248 20.7612 6.27055 20.8296C6.22094 20.8584 6.19949 20.914 6.16397 20.9476C6.1566 21.0052 6.1948 21.1594 6.22094 21.2968C6.24977 21.4369 6.2692 21.5649 6.29132 21.6782C6.33087 21.8444 6.33959 22.0904 6.41064 22.3036L6.5219 22.935C6.5219 22.935 6.71026 23.5141 6.72567 23.561C6.51654 23.6562 6.30071 23.7527 6.05069 23.8539C5.85631 23.9371 5.50575 24.0409 5.29326 24.1308C4.96951 24.2709 4.50635 24.4994 3.91582 24.7213C3.62492 24.8312 3.2576 24.913 2.96066 25.0263C2.59468 25.1751 2.2287 25.2837 1.91233 25.4338C1.73202 25.5203 1.57048 25.6543 1.42503 25.7421C1.19914 25.8728 0.961858 25.9814 0.855953 26.1054C0.670283 26.3112 0.742004 26.5096 1.05369 26.6618C1.26148 26.769 1.7776 26.5961 1.7776 26.5961C2.16704 26.4922 2.54575 26.391 2.92379 26.2965C3.31457 26.1919 3.71004 26.1289 4.08876 26.029C4.41854 25.9446 4.72821 25.8226 5.04861 25.7388C5.7819 25.539 6.49308 25.3299 7.1942 25.0967L7.30748 25.5437Z" fill="#717271"/>
<path d="M122.341 56.6705C122.773 56.7248 123.054 56.8522 123.493 56.9259C123.713 56.9614 123.936 57.068 124.162 57.068C124.327 57.068 124.617 57.1076 124.765 57.1753H124.78C124.794 57.1873 124.804 57.1934 124.822 57.2048C124.966 57.2262 125.113 57.2436 125.259 57.2751C125.638 57.3589 126.047 57.5272 126.436 57.6411C126.713 57.7229 126.908 57.7685 127.182 57.8549C127.669 58.0125 127.977 57.9903 128.443 58.0533C128.58 58.0694 128.754 58.1304 128.894 58.1398C128.894 58.1398 129.203 58.1941 129.023 57.9367C128.722 57.6056 128.516 57.489 128.248 57.1351C128.079 56.9219 127.859 56.6793 127.703 56.454C127.4 56.0009 127.233 55.7482 126.96 55.267C126.794 54.9787 126.909 54.9197 126.762 54.6154C126.573 54.224 126.273 53.5597 126.136 53.1442C126.012 52.7648 125.914 52.3016 125.821 52.012C125.678 51.5623 125.654 50.8732 125.557 50.4161C125.483 50.093 125.379 48.8691 125.304 48.1807C125.268 47.8355 125.296 47.5184 125.289 47.1839C125.276 47.1679 125.269 47.1558 125.252 47.1404C125.201 47.078 125.116 46.9279 124.821 47.1431C124.703 47.2262 124.314 47.6317 124.273 47.6954C124.245 47.7369 123.986 48.188 123.964 48.2329C123.668 48.5594 123.419 48.9763 123.247 49.2572C122.465 50.5769 121.832 51.5958 121.444 52.1897C120.797 53.1676 120.2 53.9887 119.609 54.9988C119.39 55.3742 119.189 55.7187 119.486 55.9915C119.721 56.2013 120.285 56.324 120.655 56.4574C120.911 56.5553 121.166 56.637 121.417 56.7181C121.452 56.6913 121.488 56.6659 121.525 56.6571C121.753 56.6022 122.116 56.6431 122.341 56.6705Z" fill="#D13239"/>
<path d="M128.436 41.3799C128.992 40.416 128.258 39.6821 127.772 38.9126C126.369 38.2396 124.78 38.2396 124.085 39.6807C123.936 40.5327 123.521 41.4108 124.34 42.0871C125.856 42.6119 127.225 42.5496 128.436 41.3799Z" fill="#00A1DF"/>
<path d="M63.1077 45.9741C63.056 46.8435 62.7001 47.5218 62.3576 48.178C62.131 48.611 61.9011 49.0521 61.7497 49.5474L61.5519 50.1976L61.3046 51.0107L61.2262 51.3438L61.1397 51.7185L61.0184 52.2105L60.9406 52.5302L60.8454 52.8982L60.7094 53.4297C60.6926 53.5055 60.6712 53.5718 60.643 53.6422C60.6732 53.6456 60.773 53.6737 60.8991 53.722C60.9004 53.722 60.9607 53.7126 60.9607 53.7126C61.1424 53.6838 61.3146 53.6804 61.4876 53.6791C61.6055 53.6282 61.7316 53.5819 61.8918 53.5343C62.4602 53.3694 62.4032 53.1911 62.8999 52.8238C63.1593 52.6301 63.7384 52.3962 64.0005 52.2031C64.3343 51.9632 64.9013 51.6347 65.2419 51.4437L66.189 50.8082C66.2627 50.7774 66.4075 50.7184 66.5482 50.6541C66.5482 50.6541 66.8539 50.5281 66.5918 50.0924C66.3076 49.721 65.9249 49.2552 65.7814 49.0635C65.3826 48.5206 65.5435 48.6405 65.2445 48.302C65.0615 48.1036 64.9121 47.672 64.7063 47.4816C64.5206 47.3201 63.9864 46.1973 63.792 46.0479C63.422 45.7389 63.2618 45.1798 62.8858 44.9365C62.8858 44.9365 62.8831 44.9419 62.8791 44.9439C63.056 45.1637 63.1117 45.4627 63.1117 45.7529C63.1117 45.8253 63.109 45.9031 63.1077 45.9741Z" fill="#F5C400"/>
<path d="M59.4251 56.4447C59.3587 56.2617 59.2703 56.0204 59.2146 55.881C58.8232 56.009 58.4485 56.139 58.0765 56.4025L57.9243 56.507C57.5429 56.7772 57.183 57.0359 56.7661 57.2779L56.447 57.4535C56.4329 57.4676 56.1072 57.8061 56.1072 57.8061L55.5629 58.4093C55.4087 58.5957 55.4355 58.4703 55.2807 58.668L54.4576 59.3511L53.7424 59.8571C53.7424 59.8571 53.5326 60.0971 53.3007 60.3136C53.1264 60.4704 52.9052 60.6253 52.9012 60.628C52.8469 60.6849 52.8295 60.7325 52.8295 60.7748C52.8295 60.8284 52.8576 60.8659 52.8697 60.8787L53.2618 61.1407C53.4569 61.244 53.7612 61.3452 53.9106 61.5496L55.1829 62.0671L55.9912 62.5437C55.9912 62.5437 56.4557 62.8547 56.4323 62.8339C56.4323 62.8339 57.0878 63.1462 57.0959 63.1496L57.2567 63.2575C57.2567 63.2575 57.6341 63.4445 57.6871 63.466C57.738 63.5109 57.7795 63.5283 57.8124 63.5109C57.931 63.4646 58.0269 63.1033 58.0483 62.8828C58.0463 62.5229 58.1656 62.2286 58.2789 61.9444C58.3855 61.6783 58.4961 61.4068 58.5082 61.0858L58.7019 60.453C58.8694 59.9724 59.1074 59.3216 59.1034 58.8933L59.2012 58.2612C59.2012 58.2612 59.4124 57.1458 59.4868 56.7993C59.4774 56.7524 59.4667 56.7074 59.46 56.6578C59.4506 56.5834 59.4392 56.5151 59.4251 56.4447Z" fill="#AAAD00"/>
<path d="M72.0105 53.0128C71.8362 52.2534 70.2194 52.4404 70.0338 52.4645C69.8716 52.4873 69.7228 52.5175 69.5793 52.561C69.1879 52.6743 68.9466 52.6683 68.9466 52.6683C68.659 52.6917 68.3634 52.7172 68.0765 52.7641L67.4337 52.8499C67.0563 52.8935 66.7071 52.9357 66.3331 53.047C65.9283 53.1616 65.4946 53.2769 65.0508 53.3118C64.7948 53.3325 64.5689 53.3285 64.3491 53.3225C63.969 53.3091 63.6077 53.3004 63.1901 53.4411C62.9555 53.5128 62.7256 53.5484 62.4836 53.5839L62.1532 53.6328C61.9501 53.671 61.5064 53.6804 61.4876 53.6804C61.3147 53.6818 61.1417 53.6851 60.9607 53.7139C60.9607 53.7139 60.9004 53.7233 60.8991 53.7233C60.7731 53.6751 60.6732 53.6469 60.643 53.6435C60.6712 53.5732 60.6926 53.5068 60.7094 53.4311L60.8455 52.8995L60.9406 52.5315L61.0184 52.2118L61.1397 51.7198L61.2262 51.3451L61.3046 51.012L61.5519 50.1989L61.7497 49.5488C61.9012 49.0534 62.1311 48.6124 62.3576 48.1794C62.7001 47.5231 63.0561 46.8448 63.1077 45.9754C63.109 45.9044 63.1117 45.8266 63.1117 45.7549C63.1117 45.4647 63.0561 45.1657 62.8791 44.9459C62.7886 44.8339 62.6747 44.7341 62.5004 44.6985L62.3275 44.6235L62.1713 44.6449C61.9601 44.6657 61.694 44.6945 61.5519 44.9063C61.4574 45.037 61.4206 45.2033 61.3824 45.3527L61.2597 45.7784L61.1598 46.1222L61.0814 46.4728C60.9855 46.9393 60.7912 47.3448 60.7912 47.3448C60.7315 47.4709 60.6651 47.6096 60.6115 47.7611C60.5646 47.8972 60.5385 48.0332 60.5143 48.1579C60.4822 48.3094 60.4493 48.4689 60.3776 48.6264C60.2429 48.9234 60.2067 49.1875 60.1745 49.4563C60.1477 49.66 60.1222 49.8564 60.0525 50.0656L59.8387 50.7948L59.7026 51.2882C59.5525 51.7996 59.3594 52.4645 59.2864 53.0463C59.0317 52.8794 58.8326 52.7253 58.6911 52.5758C58.6911 52.5758 57.6663 51.5469 57.427 51.2265C57.1971 50.9322 56.9202 50.6862 56.6541 50.4557C56.4939 50.3142 56.3284 50.1755 56.1756 50.0267C55.9182 49.7653 55.5951 49.4475 55.2465 48.9991C55.2465 48.9991 54.7418 48.3449 54.5789 48.117C54.4388 47.9045 54.2994 47.7202 54.1198 47.5077C53.9804 47.3422 53.9046 47.2966 53.8007 47.2329L53.6305 47.1337L53.4321 47.0875C53.4321 47.0875 53.2109 47.1746 53.1552 47.2624C53.0942 47.3603 53.0782 47.4628 53.0782 47.5607C53.0782 47.6324 53.0875 47.6947 53.0969 47.7289C53.1472 47.9588 53.2799 48.0835 53.3932 48.1807L53.5192 48.2946C53.6935 48.5071 53.8061 48.7612 53.9247 49.0501C54.0313 49.29 54.1385 49.5454 54.2954 49.7565C54.2954 49.7565 54.9563 50.766 55.1581 50.9275L55.4335 51.2238C55.5381 51.3505 55.6253 51.5187 55.7238 51.685C55.8679 51.9403 56.0113 52.1951 56.2118 52.3794C56.3237 52.4839 56.4772 52.6844 56.6025 52.8466C56.6025 52.8466 57.3385 53.7763 57.5342 54.1101C57.6334 54.2736 57.7192 54.4003 57.805 54.5116C57.4873 54.6168 57.1575 54.7334 56.8237 54.8963C56.8237 54.8963 55.5596 55.57 55.2244 55.7094C54.9878 55.8079 54.7351 55.8917 54.4891 55.9681C54.217 56.0526 53.9341 56.1431 53.6747 56.2617C53.3932 56.3937 53.1552 56.556 52.9206 56.7135L52.5064 56.9869C52.2731 57.125 51.3327 57.5614 51.1343 57.6713L50.2147 58.2082C49.527 58.5863 49.0363 58.8597 48.9391 59.5709C48.9284 59.6614 48.923 59.7459 48.923 59.829C48.923 60.2814 49.1268 60.5589 49.6007 60.7835C50.273 61.1032 50.5344 60.9973 51.2369 60.701L51.5191 60.5308C51.7262 60.3491 51.934 60.209 52.1625 60.0696L52.4233 59.9107C52.4233 59.9107 53.2095 59.3618 53.4086 59.2512L53.9951 58.9603C54.2304 58.8457 54.4697 58.7297 54.7009 58.597C54.9657 58.4442 55.1098 58.3275 55.2894 58.1713L55.4597 58.0366C55.7037 57.8449 55.9765 57.6975 56.2694 57.5513L56.4484 57.4555L56.7674 57.2799C57.1843 57.0379 57.5443 56.7792 57.9257 56.509L58.0778 56.4045C58.4498 56.1404 58.8239 56.011 59.216 55.883C59.2716 56.0224 59.3601 56.263 59.4265 56.4467C59.4405 56.5164 59.4519 56.5854 59.4626 56.6592C59.4694 56.7088 59.4794 56.7537 59.4895 56.8006C59.5176 56.9313 59.5458 57.0533 59.5826 57.18L59.6604 57.4709C59.7274 57.7491 59.838 57.975 59.9466 58.1962C60.0713 58.4515 60.1872 58.6895 60.2348 58.9951C60.3602 59.7901 60.7583 60.5951 61.1437 61.3747C61.4916 62.0811 61.6666 62.5034 61.6666 62.5034C61.8609 62.9733 62.2195 63.8467 62.6311 64.0183C62.8208 64.0933 62.9301 64.0511 62.9864 63.9948C63.044 63.9352 63.0675 63.8527 63.0675 63.7542C63.0675 63.6577 63.042 63.5484 63.0051 63.4559L62.8677 63.1281C62.794 62.9572 62.7249 62.8044 62.672 62.6234L62.4501 61.9451C62.2879 61.4457 62.1297 60.9852 62.0285 60.4812C62.0024 60.3471 61.9488 60.1983 61.8991 60.0562C61.8361 59.8806 61.7731 59.6949 61.7503 59.5294C61.7128 59.2324 61.6284 58.9589 61.5452 58.6902L61.2557 57.609C61.186 57.302 61.1089 56.9809 61.0077 56.6552L60.9641 56.5151C60.8354 56.1156 60.7107 55.702 60.7013 55.3045C60.7013 55.2918 60.6993 55.2429 60.6993 55.2295C60.7576 55.206 60.8461 55.1705 60.8461 55.1705C61.2811 54.9888 61.7349 54.7985 62.1927 54.6691C62.9528 54.4519 63.7485 54.4043 64.5247 54.3608L65.2043 54.3138C65.4416 54.2971 65.6548 54.2448 65.8599 54.2019L66.2527 54.1241C66.4377 54.092 66.63 54.0792 66.8083 54.0658C67.0651 54.0504 67.3251 54.0316 67.5772 53.9646C67.9043 53.8781 68.3406 53.7763 68.8112 53.7575L69.1115 53.7649C69.2898 53.7763 69.4748 53.7857 69.643 53.7468C69.643 53.7468 70.0532 53.6221 70.2067 53.6255C70.4245 53.6288 70.5955 53.6221 70.7972 53.598L70.9702 53.5872C71.2885 53.5718 71.7752 53.5504 71.9555 53.3084C72.0145 53.2239 72.0379 53.1268 72.0105 53.0128Z" fill="#717271"/>
<path d="M131.587 58.788C131.509 58.5863 131.422 58.4797 131.234 58.349C131.145 58.284 130.915 58.0882 130.896 58.0701C130.599 57.8208 130.315 57.548 130.047 57.2537C129.87 57.06 129.677 56.9166 129.512 56.7021C129.346 56.4936 129.211 56.2161 129.061 55.9942C128.807 55.6122 128.661 55.4372 128.45 55.027C128.352 54.842 128.151 54.4238 128.056 54.2321C127.891 53.8775 127.74 53.4639 127.591 53.0966C127.512 52.9116 127.512 52.6837 127.443 52.4953C127.328 52.1776 127.314 52.0235 127.202 51.622C127.124 51.3532 127.017 50.6675 126.957 50.3906C126.864 49.9797 126.839 48.9917 126.793 48.6539C126.723 48.1284 126.687 47.6109 126.69 47.1169L126.665 46.1531L126.544 45.4339L126.44 44.1811C126.174 43.5396 125.845 43.7012 125.616 44.1992C125.562 44.3252 125.509 44.4727 125.463 44.6248C125.438 44.7294 125.411 44.844 125.395 44.9626C125.347 45.22 125.315 45.4479 125.292 45.6685C125.241 46.1484 125.289 47.1699 125.289 47.184C125.297 47.5184 125.269 47.8362 125.304 48.1807C125.379 48.8691 125.483 50.093 125.557 50.4161C125.654 50.8732 125.678 51.5623 125.821 52.0121C125.914 52.3023 126.012 52.7648 126.136 53.1442C126.273 53.5598 126.572 54.224 126.762 54.6155C126.909 54.9198 126.794 54.9788 126.96 55.267C127.234 55.7489 127.4 56.0016 127.703 56.4541C127.859 56.6793 128.08 56.9213 128.248 57.1351C128.516 57.489 128.722 57.6056 129.023 57.9367C129.204 58.1941 128.895 58.1398 128.895 58.1398C128.754 58.1305 128.58 58.0701 128.443 58.0534C127.977 57.9904 127.669 58.0125 127.182 57.855C126.908 57.7685 126.713 57.7229 126.436 57.6411C126.047 57.5272 125.639 57.359 125.26 57.2752C125.112 57.243 124.966 57.2262 124.822 57.2048C124.805 57.1934 124.794 57.1874 124.78 57.1753H124.766C124.616 57.1069 124.327 57.0681 124.162 57.0681C123.936 57.0681 123.713 56.9615 123.493 56.9259C123.054 56.8522 122.773 56.7249 122.341 56.6706C122.116 56.6431 121.753 56.6022 121.525 56.6572C121.488 56.6659 121.452 56.6913 121.417 56.7182C121.281 56.8207 121.203 57.0198 121.364 57.1512C121.506 57.2658 121.712 57.3027 121.892 57.3482C122.167 57.4132 122.4 57.4997 122.66 57.5922C122.893 57.6693 123.131 57.7638 123.373 57.8134C123.54 57.8469 123.589 57.8355 123.745 57.8878C123.821 57.9126 123.914 57.9562 123.998 57.9837C124.019 57.9937 124.403 58.099 124.583 58.1646C124.715 58.2136 124.936 58.3543 125.078 58.4019C125.458 58.5333 125.874 58.6613 126.296 58.786C126.605 58.8738 126.944 58.9656 127.26 59.0622C127.291 59.0729 127.736 59.1888 127.914 59.2378C128.12 59.2968 128.315 59.3497 128.525 59.4013C128.754 59.4583 128.982 59.5099 129.225 59.5186C129.685 59.5354 130.161 59.5816 130.623 59.5609C131.072 59.5401 131.804 59.335 131.587 58.788Z" fill="#717271"/>
<path d="M107.144 18.6833C106.859 18.3991 106.729 18.324 106.343 18.324C106.087 18.324 105.968 18.2429 105.722 18.2704C105.544 18.2945 105.05 18.4044 104.875 18.448C104.459 18.5559 104.257 18.8113 103.873 18.9715C103.502 19.1304 103.224 19.4407 102.912 19.6968C102.555 19.991 102.301 20.4368 101.987 20.7692C101.64 21.1339 101.504 21.5146 101.163 21.8263C100.846 22.1185 100.54 22.5314 100.32 22.9215C100.173 23.1789 100.029 23.3545 99.8589 23.5918C99.7544 23.7386 99.7054 23.9095 99.5921 24.0737C99.3904 24.362 99.2784 24.6321 99.0532 24.8794C98.9782 24.9572 98.6578 24.2675 98.6578 24.2675C98.5364 24.0644 98.2589 23.7319 98.1396 23.5683C98.0317 23.4162 97.9519 23.2372 97.7964 23.1132C97.2394 22.6501 96.8889 22.1721 96.2588 21.7767C95.9746 21.6011 95.8526 21.4489 95.3526 21.0675C95.366 21.0561 94.638 20.5078 94.3599 20.349C94.1005 20.1961 93.7439 20.1197 93.5287 19.9287C93.3947 19.8053 93.3229 19.7155 93.1359 19.6338C91.9348 19.129 90.9903 18.6337 89.702 18.44C89.3025 18.3823 88.899 18.2375 88.4734 18.2637C88.3266 18.2677 87.8199 18.2972 87.6892 18.3166C87.482 18.3502 87.0604 18.4876 86.8915 18.5868C86.4297 18.8676 86.246 19.314 86.1153 19.9153C86.053 20.1901 86.0952 20.5212 86.0952 20.8135C86.0952 21.0005 86.0617 21.3604 86.1059 21.5816C86.12 21.5695 86.1401 22.0749 86.1549 22.0629C86.1549 22.2298 86.1937 22.2921 86.2346 22.4624C86.2782 22.6246 86.3546 22.7747 86.3962 22.9436C86.4578 23.1856 86.6093 23.2955 86.6985 23.5275C86.7782 23.7326 86.8473 23.7064 86.9217 23.9089C87.0745 24.3466 87.3842 24.6113 87.6436 24.9827C87.8306 25.2467 88.0732 25.4693 88.2529 25.6449C88.3816 25.7796 88.5579 25.9459 88.7006 26.0565C88.8474 26.1657 89.0069 26.2146 89.1497 26.3534C89.3354 26.5136 90.1511 27.212 90.4078 27.3608C90.6538 27.5009 91.7484 27.7985 91.9803 27.8609C92.3919 27.9728 92.8108 28.0573 93.2479 28.1437C93.7291 28.2255 94.1145 28.2215 94.5911 28.2724C94.8519 28.3026 95.1227 28.2724 95.3941 28.261C95.5878 28.2503 95.7715 28.2054 95.9605 28.1819C96.2528 28.1431 96.4994 28.1102 96.7756 27.9809C97.0142 27.8743 97.2381 27.755 97.4781 27.6263C97.6919 27.519 97.9365 27.3716 98.1068 27.2268C98.2455 27.1014 98.332 26.9439 98.4694 26.8306C98.6202 26.6932 98.6792 26.6658 98.7677 26.4868C99.0847 26.6021 99.0673 27.0009 99.1397 27.1631C99.2168 27.3401 99.2536 27.4091 99.263 27.6129C99.2697 27.7704 99.3301 27.9185 99.3327 28.0566C99.3468 28.3864 99.3066 28.6042 99.2543 28.9206C99.2349 29.0118 99.1444 29.2196 99.1973 29.3261C99.3093 29.5413 99.5265 29.2665 99.5895 29.182C99.8026 28.8683 99.9856 28.7416 100.022 28.3535C100.032 28.2282 100.14 28.0325 100.11 27.8991C100.12 27.7845 100.102 27.5311 100.124 27.3977L100.087 27.1437C99.9977 26.7623 100.067 26.8729 99.9655 26.5565C99.93 26.4573 99.8623 26.3883 99.7939 26.2998C99.7497 26.2455 99.5023 25.9184 99.5084 25.8098C99.5124 25.718 99.6652 25.4807 99.6773 25.4083C99.9166 25.0061 100.159 24.7326 100.309 24.2842C100.346 24.1629 100.329 24.063 100.419 23.9491C100.618 23.6629 100.827 23.4175 101.007 23.1146C101.105 22.9564 101.201 22.7861 101.327 22.648C101.584 22.3853 101.897 22.201 102.112 21.8899C102.246 21.6996 102.288 21.5582 102.39 21.3577C102.431 21.2713 102.501 21.2156 102.553 21.1318C102.62 21.0353 102.62 20.9066 102.673 20.8168C102.733 20.719 102.854 20.6291 102.927 20.5199C103.021 20.3898 103.135 20.2792 103.243 20.1546C103.486 19.8918 103.693 19.6317 103.983 19.4481C104.45 19.1485 105.07 18.8616 105.641 18.8763C105.711 18.5398 106.547 18.7282 106.686 18.946C106.875 19.2343 106.787 19.798 106.724 20.1164C106.629 20.5943 106.473 21.1419 106.155 21.526C105.877 21.8558 105.542 22.1547 105.245 22.4617C105.009 22.7043 104.812 22.9557 104.554 23.1923C104.15 23.559 103.71 23.9511 103.309 24.313C103.11 24.498 102.948 24.5677 102.716 24.7078C102.476 24.917 102.482 24.9706 102.51 24.988C102.522 25.0021 102.537 25.0061 102.537 25.0115C102.595 25.0081 102.867 24.8828 103.022 24.7856C103.169 24.6904 103.475 24.5329 103.605 24.427C103.984 24.1428 104.367 23.7949 104.739 23.5154C104.92 23.3766 105.111 23.1803 105.277 23.0355C105.478 22.8585 105.747 22.7137 105.942 22.5314C106.272 22.2284 106.562 21.9342 106.835 21.5729C106.97 21.3872 107.073 21.0192 107.243 20.6439C107.38 20.3557 107.388 19.9609 107.409 19.6284C107.426 19.2738 107.396 18.9279 107.144 18.6833ZM98.4098 26.0913C98.2824 26.3567 98.0424 26.5733 97.8239 26.7241C97.4955 26.9466 97.1509 27.1725 96.7722 27.2797C96.2963 27.4024 95.8097 27.4902 95.3164 27.6068C94.5496 27.7985 93.7915 27.6906 93.0582 27.3608C92.3389 27.0297 91.6057 26.7321 90.8757 26.4345C90.6438 26.3474 90.3891 26.2321 90.196 26.0565C90.1082 25.9754 90.0875 26.0122 89.9996 25.9445C89.7818 25.7796 89.3381 25.6657 89.1216 25.5162C88.9232 25.3741 88.5733 24.982 88.3628 24.6535C88.1651 24.3466 87.9465 24.0778 87.7207 23.8076C87.4948 23.5442 87.3426 23.1715 87.1449 22.882C87.0665 22.766 87.0383 22.6715 86.9961 22.5274C86.8178 21.9731 86.791 21.1995 86.8841 20.5983C86.9136 20.3791 87.0068 19.985 87.1952 19.8503C87.3949 19.7088 87.7099 19.7423 87.9499 19.7423C88.4546 19.7309 88.9647 19.8925 89.4547 19.934C89.9708 19.9763 90.4876 20.0721 91.0024 20.164C91.4213 20.2343 91.8376 20.3818 92.2625 20.4616C92.5193 20.5058 92.7921 20.4776 93.0401 20.542C93.3933 20.6305 93.6936 20.8919 94.0066 21.0796C94.3136 21.2632 94.7158 21.4288 94.9839 21.6701C95.1005 21.7787 95.1568 21.8705 95.2929 21.9536C95.6281 22.1802 96.0731 22.3162 96.3459 22.6199C96.5135 22.8062 96.6315 23.0375 96.8111 23.2198C97.0826 23.4953 97.3105 23.7192 97.464 24.0865C97.5384 24.2648 97.5585 24.3445 97.6932 24.4645C97.7482 24.5168 97.8226 24.5436 97.8816 24.6053C98.1725 24.9143 98.2837 25.3875 98.5163 25.7441L98.5371 25.7649C98.5378 25.8467 98.4379 26.0256 98.4098 26.0913Z" fill="#717271"/>
<path d="M175.083 38.7619C175.083 39.2492 174.709 39.6312 174.223 39.6312C173.733 39.6312 173.315 39.2492 173.315 38.7619V31.9819C173.315 31.4959 173.715 31.1387 174.209 31.1387C174.698 31.1387 175.084 31.4959 175.084 31.9819V38.7619H175.083Z" fill="#55585F"/>
<path d="M167.617 41.7969C167.617 41.7969 172.86 41.7969 172.892 41.7969C173.337 41.7969 173.314 42.2198 173.314 42.2198V44.7609C173.314 45.2556 173.72 45.647 174.218 45.647C174.703 45.647 175.083 45.2556 175.083 44.7609V41.4751C175.083 40.7814 174.677 40.3504 173.888 40.3504H167.618C167.208 40.3504 166.891 40.7117 166.891 41.1112C166.891 41.5107 167.207 41.7969 167.617 41.7969Z" fill="#55585F"/>
<path d="M188.599 37.8837H177.785C177.373 37.8837 177.061 38.2216 177.061 38.6271C177.061 39.0406 177.373 39.3785 177.785 39.3785H182.241V40.4033H180.137C179.823 40.4033 179.124 40.6105 179.124 41.4731V44.3822C179.124 45.2066 179.804 45.4453 180.103 45.4453H186.281C186.575 45.4453 187.251 45.1993 187.251 44.4056V41.4376C187.251 40.6105 186.533 40.4033 186.242 40.4033H184.146V39.3785H188.598C188.999 39.3785 189.317 39.0406 189.317 38.6271C189.318 38.2216 189 37.8837 188.599 37.8837ZM185.378 42.2192V43.612C185.378 43.8868 185.094 43.9498 185.001 43.9498H181.336C181.241 43.9498 180.959 43.8841 180.959 43.557V42.2393C180.959 41.9343 181.209 41.8324 181.318 41.8324H185.045C185.152 41.8317 185.378 41.939 185.378 42.2192Z" fill="#55585F"/>
<path d="M187.264 35.4091H185.88V33.232H187.045C187.446 33.232 187.767 32.8995 187.767 32.4792C187.767 32.0697 187.446 31.7346 187.045 31.7346H179.332C178.938 31.7346 178.625 32.0697 178.625 32.4792C178.625 32.8995 178.938 33.232 179.332 33.232H180.336V35.4091H179.116C178.726 35.4091 178.395 35.706 178.395 36.1162C178.395 36.5311 178.726 36.8676 179.116 36.8676H187.264C187.659 36.8676 187.99 36.5311 187.99 36.1162C187.99 35.7067 187.659 35.4091 187.264 35.4091ZM182.02 33.232H184.191L184.202 35.4091H182.02V33.232Z" fill="#55585F"/>
<path d="M171.982 37.428C170.787 36.7081 169.24 35.2837 169.24 33.5437V32.5054C169.212 31.9819 168.811 31.577 168.311 31.577C167.789 31.577 167.36 31.9819 167.336 32.5054V33.4297C167.336 35.2576 165.878 36.7222 164.441 37.6425L164.447 37.6505C164.199 37.8925 164.195 38.3496 164.408 38.6425C164.716 39.1024 165.205 39.0903 165.585 38.8389C165.585 38.8376 165.595 38.8376 165.599 38.8249C166.236 38.42 166.703 38.0105 167.182 37.5406C167.73 36.9869 168.203 36.4185 168.311 36.1162C168.447 36.4373 168.771 36.8757 169.397 37.5118C169.862 37.9267 170.316 38.2799 170.95 38.6439C171.316 38.8691 171.778 38.8611 172.101 38.4294C172.333 38.1231 172.278 37.6177 171.982 37.428Z" fill="#55585F"/>
<path d="M144.613 37.3375C146.604 37.3375 148.213 35.8427 148.213 34.0631C148.213 32.2895 146.604 30.8203 144.613 30.8203C142.619 30.8203 141.014 32.2889 141.014 34.0631C141.014 35.8427 142.619 37.3375 144.613 37.3375ZM144.613 32.317C145.65 32.317 146.442 33.0959 146.442 34.0631C146.442 35.0464 145.63 35.8159 144.613 35.8159C143.646 35.8159 142.784 35.0464 142.784 34.0631C142.784 33.0959 143.619 32.317 144.613 32.317ZM150.114 37.7892H139.168C138.769 37.7892 138.439 38.1177 138.439 38.5158C138.439 38.9113 138.769 39.2411 139.168 39.2411H143.708V40.1272C142.167 40.4965 141.117 41.6984 141.117 43.0979C141.117 44.7669 142.709 46.1598 144.686 46.1598C146.681 46.1598 148.273 44.7669 148.273 43.0979C148.273 41.6917 147.185 40.4496 145.65 40.1198V39.2411H150.114C150.533 39.2411 150.85 38.9113 150.85 38.5158C150.85 38.1177 150.533 37.7892 150.114 37.7892ZM146.406 43.0979C146.406 43.9867 145.63 44.724 144.643 44.724C143.719 44.724 142.923 43.9767 142.923 43.0979C142.923 42.1461 143.751 41.4497 144.686 41.4497C145.676 41.4497 146.406 42.1615 146.406 43.0979Z" fill="#55585F"/>
<path d="M162.66 40.4852C162.66 40.9852 162.296 41.3793 161.782 41.3793C161.279 41.3793 160.88 40.9852 160.88 40.4852V31.9819C160.88 31.4859 161.279 31.1299 161.782 31.1299C162.296 31.1299 162.66 31.4859 162.66 31.9819V40.4852Z" fill="#55585F"/>
<path d="M159.708 37.7551C158.834 37.3281 158.218 36.9829 157.699 36.3595C157.212 35.7496 156.829 34.8668 156.829 33.9572V33.4136H158.868C159.274 33.4136 159.61 33.1194 159.61 32.7118C159.61 32.3063 159.274 31.9812 158.868 31.9812H153.006C152.589 31.9812 152.259 32.3056 152.259 32.7118C152.259 33.1187 152.589 33.4136 153.006 33.4136H154.929V33.9934C154.929 34.852 154.563 35.6168 154.144 36.2583C153.589 37.0533 152.913 37.6565 152.123 38.1224C151.842 38.3067 151.757 38.7954 151.949 39.1158C152.196 39.599 152.689 39.6305 153.093 39.4207L153.172 39.3839C154.045 38.8892 154.278 38.6104 154.928 37.9347C155.53 37.3536 155.824 36.7771 155.949 36.4882C156.15 36.8234 156.606 37.5057 157.151 37.9347C157.693 38.4126 158.043 38.6519 158.813 39.0226H158.809L158.877 39.0581C159.288 39.2103 159.758 39.0226 159.923 38.6258C160.062 38.3342 159.948 37.8925 159.708 37.7551Z" fill="#55585F"/>
<path d="M162.212 43.907C162.212 43.907 157.081 43.907 157.055 43.907C156.583 43.907 156.604 43.5323 156.604 43.5323V41.4899C156.604 41.0026 156.217 40.5984 155.729 40.5984C155.229 40.5984 154.823 41.0033 154.823 41.4899V44.332C154.823 45.0163 155.255 45.454 156.063 45.454H162.212C162.578 45.454 162.91 45.1082 162.91 44.7134C162.91 44.2629 162.578 43.907 162.212 43.907Z" fill="#55585F"/>
</g>
<defs>
<clipPath id="clip0_1114_1751">
<rect width="190" height="64.6024" fill="white" transform="translate(0 0.198792)"/>
</clipPath>
</defs>
</svg>
